PathFileType	4	(X/Y/Z)	/Users/niels/Desktop/University/Third Semester/Perception and Action/Exam/Gymnastics Motion Tracking/Code for Gym Tracking/Analyzed Data/Webcam_Backflip/id2006_1_baseline_Sports2D/id2006_1_baseline_Sports2D_px_person00.trc
DataRate	CameraRate	NumFrames	NumMarkers	Units	OrigDataRate	OrigDataStartFrame	OrigNumFrames
29.782608695652176	29.782608695652176	8	22	m	29.782608695652176	69	138
Frame#	Time	Hip			RHip			RKnee			RAnkle			RBigToe			RSmallToe			RHeel			LHip			LKnee			LAnkle			LBigToe			LSmallToe			LHeel			Neck			Head			Nose			RShoulder			RElbow			RWrist			LShoulder			LElbow			LWrist		
		X1	Y1	Z1	X2	Y2	Z2	X3	Y3	Z3	X4	Y4	Z4	X5	Y5	Z5	X6	Y6	Z6	X7	Y7	Z7	X8	Y8	Z8	X9	Y9	Z9	X10	Y10	Z10	X11	Y11	Z11	X12	Y12	Z12	X13	Y13	Z13	X14	Y14	Z14	X15	Y15	Z15	X16	Y16	Z16	X17	Y17	Z17	X18	Y18	Z18	X19	Y19	Z19	X20	Y20	Z20	X21	Y21	Z21	X22	Y22	Z22
69	2.316788321167883	0.9815671928355456	-0.6474053904203545	0.0	0.9899201299614705	-0.6432277124043639	0.0	0.994979856501442	-1.0337778475848773	0.0	0.9803193644547757	-1.0787524012081116	0.0	1.3936758337864252	-1.0156835868657828	0.0	1.3612735182452929	-1.0318847529198159	0.0	1.1636649087609456	-1.0892620655915823	0.0	0.976388977453719	-0.6632348487706976	0.0	0.9948321182296883	-1.0166978110930989	0.0	0.9838199522921864	-1.0746314259722431	0.0	1.49935790955969	-0.6945361318101047	0.0	1.5050170857812013	-0.7143432632372559	0.0	1.4342773698357887	-0.8416748046236289	0.0	0.9587245549104021	-0.221304732895707	0.0	0.9955532332727598	-0.03709719968211068	0.0	1.023786745769737	-0.13700205718771874	0.0	0.9595701800758688	-0.21875407189013246	0.0	1.1214541021359128	-0.09002577874250649	0.0	1.2124253946263286	-0.03983295304138752	0.0	0.9699704202909015	-0.273245443387304	0.0	1.1084718736708972	-0.3059108576119716	0.0	1.1923794064816629	-0.1655918796144168	0.0
70	2.350364963503649	0.9802494375655542	-0.6501991716684901	0.0	0.9872513297860995	-0.6448999392949983	0.0	0.9925588373765213	-1.0337735511484545	0.0	0.9772324557561417	-1.0805033450095274	0.0	1.3936759417183868	-1.0156834555822174	0.0	1.361273643514028	-1.0318846219211977	0.0	1.1636650424151298	-1.089261867201145	0.0	0.9793644758865493	-0.6642007185267185	0.0	0.9957727483626005	-1.0168494624739643	0.0	0.9859741327850625	-1.0749542492614088	0.0	1.4993579065209561	-0.6945361314197692	0.0	1.5050170825592297	-0.7143432627769128	0.0	1.4342773928408352	-0.8416748042957967	0.0	0.9593387465725036	-0.22205525063412215	0.0	0.9958207690593478	-0.037795918360205204	0.0	1.0255284193441703	-0.13957438354492202	0.0	0.960114720560801	-0.2211639325859632	0.0	1.1270149937531968	-0.10663404180035695	0.0	1.229513892686712	-0.04581491369982216	0.0	0.9819702277379935	-0.2737387528082442	0.0	1.123790745278381	-0.29123431595630284	0.0	1.2001707587997248	-0.16525147038859855	0.0
71	2.3839416058394156	0.9799153192859411	-0.6541148524611314	0.0	0.984411646372415	-0.6479123610505055	0.0	0.9900416207022602	-1.0336569063306678	0.0	0.9748349858544378	-1.0822823284885386	0.0	1.3936760982928913	-1.0156832278626946	0.0	1.3612738123161956	-1.031884398510481	0.0	1.1636650448400037	-1.0892616087304736	0.0	0.984947572077769	-0.6665000137322222	0.0	0.9962134524865767	-1.0172417545956918	0.0	0.9874616786592852	-1.0755445890839768	0.0	1.4993579015358618	-0.6945361313845287	0.0	1.5050170795155053	-0.7143432609700939	0.0	1.4342774164824674	-0.8416748037576631	0.0	0.9603899928193513	-0.22353824543992123	0.0	0.9954945579234148	-0.03940614013728537	0.0	1.0264287435718265	-0.14259432586988702	0.0	0.9589110883152784	-0.22552982433613486	0.0	1.1322801963970779	-0.12737441690365342	0.0	1.2459035455663423	-0.056873605546626634	0.0	0.9954217633698521	-0.27580186446750676	0.0	1.1386508757229779	-0.2964076142479119	0.0	1.211425456314368	-0.17899165115595783	0.0
72	2.417518248175182	0.9800110849548206	-0.6589790444398596	0.0	0.98123365887652	-0.652235929692041	0.0	0.9873185103371211	-1.033233056565065	0.0	0.9730273207246508	-1.0839532175805056	0.0	1.3936762703601615	-1.0156829153750255	0.0	1.3612739762420414	-1.0318840972629193	0.0	1.1636647277806678	-1.0892613736623422	0.0	0.9915334785254567	-0.6701397367466332	0.0	0.9958179345662379	-1.0176076403371777	0.0	0.9881836719423737	-1.0763726477348179	0.0	1.4993578950941913	-0.6945361322325301	0.0	1.505017078893061	-0.714343257082474	0.0	1.4342774262132392	-0.841674803061823	0.0	0.9617904837792886	-0.22581133223949224	0.0	0.9950557391469201	-0.04211855993686937	0.0	1.0268476033199665	-0.146053576306723	0.0	0.956047985496618	-0.2315836491918603	0.0	1.135547296678197	-0.15249590804923113	0.0	1.2604136699375161	-0.07678143001811667	0.0	1.0069377970892055	-0.27944332016070256	0.0	1.1509015620048497	-0.31670445214219695	0.0	1.2230567437849114	-0.20369135939523283	0.0
73	2.4510948905109484	0.9799780062117573	-0.6645995987912485	0.0	0.9775122895425071	-0.6576453009610171	0.0	0.9839870975869295	-1.0323654897101855	0.0	0.9715790067762607	-1.0854060838080737	0.0	1.39367636748922	-1.0156826017914762	0.0	1.361274021207657	-1.0318838043634404	0.0	1.1636638440207343	-1.0892613489346772	0.0	0.997609319240058	-0.6748203865216154	0.0	0.9946240347043401	-1.0176974642550811	0.0	0.9887425099997793	-1.0773533609471542	0.0	1.4993578893345012	-0.6945361346658769	0.0	1.5050170845429487	-0.7143432506952535	0.0	1.4342773958849901	-0.8416748024387677	0.0	0.9633811972598934	-0.2287671971013478	0.0	0.9951061320981073	-0.04583318735214533	0.0	1.0272037930420381	-0.1499030325832599	0.0	0.952154820181816	-0.2388367065903086	0.0	1.1352296508036133	-0.18203170695483098	0.0	1.2718473124012548	-0.10917384097709677	0.0	1.013676100782426	-0.2840397846029135	0.0	1.1577245000184655	-0.3430215707361113	0.0	1.2332600269104652	-0.23389395521360773	0.0
74	2.484671532846715	0.9795084952882701	-0.6709685199296762	0.0	0.9731142955161786	-0.664106285191103	0.0	0.9795151251822612	-1.0313977694489829	0.0	0.9702012830446635	-1.0867546741348681	0.0	1.3936762195957761	-1.0156824905220092	0.0	1.361273748604488	-1.0318837231359645	0.0	1.1636621651003032	-1.0892618499135818	0.0	1.0025953189889072	-0.6804221769684651	0.0	0.9931039552930614	-1.0178305434536186	0.0	0.9899089339540614	-1.0785455052436568	0.0	1.4993578889916175	-0.6945361393491598	0.0	1.5050171016944218	-0.714343242427726	0.0	1.4342772883384851	-0.8416748023992817	0.0	0.9651243322402274	-0.23227938765793502	0.0	0.9961554089438063	-0.0502491093435493	0.0	1.0278589105726772	-0.15406769608896526	0.0	0.9480924470023505	-0.2467283035903667	0.0	1.1305737184566407	-0.21565431835674737	0.0	1.2793713888231941	-0.15531978314511832	0.0	1.0150186861125963	-0.28877908596534657	0.0	1.1568706852046227	-0.3687906234788174	0.0	1.2414421471274026	-0.2679266726356728	0.0
75	2.5182481751824812	0.9784760633299304	-0.6781184982943701	0.0	0.9681091527462348	-0.6717841541317517	0.0	0.9736006295955011	-1.0310463996526842	0.0	0.9687504676348004	-1.088269658661581	0.0	1.3936755748105267	-1.0156829420820783	0.0	1.361272884882728	-1.0318842077708563	0.0	1.16365965732565	-1.0892632969447655	0.0	1.006422758183608	-0.6870123677596107	0.0	0.992006269771338	-1.0188453348401325	0.0	0.9921262098219463	-1.080053477990663	0.0	1.4993579019949115	-0.6945361464216957	0.0	1.505017135497372	-0.7143432350091443	0.0	1.434277064029011	-0.8416748037992848	0.0	0.9670918667406336	-0.23628388863002758	0.0	0.9985013001761457	-0.05503372300258668	0.0	1.029144150870544	-0.15841713589824022	0.0	0.9447852960620922	-0.25480156178972796	0.0	1.1223280517697323	-0.25223173167405244	0.0	1.2830891206866049	-0.2123984575012134	0.0	1.0123344216082537	-0.29311655811581844	0.0	1.1485252288052978	-0.3923175607807863	0.0	1.2474395963688159	-0.30659331048727884	0.0
76	2.5518248175182476	0.9766925334349885	-0.6858053403743138	0.0	0.9627642990503592	-0.6805772855549421	0.0	0.9663615546885203	-1.0318232518526276	0.0	0.9673143843353875	-1.0900455714158304	0.0	1.3936741477726295	-1.0156844619255685	0.0	1.3612711537509559	-1.0318857464172928	0.0	1.163656780841867	-1.089266089931833	0.0	1.0086861239047005	-0.6943771120407756	0.0	0.9920275141899353	-1.0213653058638872	0.0	0.9953095384537937	-1.081702180368294	0.0	1.499357938829544	-0.6945361546592796	0.0	1.5050171875432945	-0.714343234496146	0.0	1.4342767034808663	-0.8416748077713195	0.0	0.9693264017168716	-0.24068080296276953	0.0	1.002242452869194	-0.059872068518727437	0.0	1.031345351878606	-0.1627374436253831	0.0	0.9431812942241086	-0.26271523070819436	0.0	1.112510224517456	-0.2899980700081789	0.0	1.2840407058932837	-0.27504513583155693	0.0	1.0076144255483306	-0.29691719218156004	0.0	1.135419770348894	-0.4149107921089063	0.0	1.2507345483829218	-0.349885018135993	0.0
